<svg width="127" height="56" viewBox="0 0 127 56" fill="none" xmlns="http://www.w3.org/2000/svg">
<rect x="0.748535" y="0.5" width="125" height="55" rx="9.5" stroke="#2A3647"/>
<path d="M29.7144 25H27.9531C27.8489 24.4934 27.6666 24.0483 27.4062 23.6648C27.1505 23.2812 26.838 22.9593 26.4687 22.6989C26.1041 22.4337 25.6993 22.2348 25.2542 22.1023C24.8091 21.9697 24.3451 21.9034 23.8622 21.9034C22.9815 21.9034 22.1837 22.1259 21.4687 22.571C20.7585 23.0161 20.1927 23.6719 19.7713 24.5384C19.3546 25.4048 19.1463 26.4678 19.1463 27.7273C19.1463 28.9867 19.3546 30.0497 19.7713 30.9162C20.1927 31.7827 20.7585 32.4384 21.4687 32.8835C22.1837 33.3286 22.9815 33.5511 23.8622 33.5511C24.3451 33.5511 24.8091 33.4848 25.2542 33.3523C25.6993 33.2197 26.1041 33.0232 26.4687 32.7628C26.838 32.4976 27.1505 32.1733 27.4062 31.7898C27.6666 31.4015 27.8489 30.9564 27.9531 30.4545H29.7144C29.5819 31.1979 29.3404 31.8632 28.99 32.4503C28.6396 33.0374 28.204 33.5369 27.6832 33.9489C27.1624 34.3561 26.5776 34.6662 25.9289 34.8793C25.285 35.0923 24.5961 35.1989 23.8622 35.1989C22.6216 35.1989 21.5184 34.8958 20.5525 34.2898C19.5866 33.6837 18.8267 32.822 18.2727 31.7045C17.7187 30.5871 17.4417 29.2614 17.4417 27.7273C17.4417 26.1932 17.7187 24.8674 18.2727 23.75C18.8267 22.6326 19.5866 21.7708 20.5525 21.1648C21.5184 20.5587 22.6216 20.2557 23.8622 20.2557C24.5961 20.2557 25.285 20.3622 25.9289 20.5753C26.5776 20.7884 27.1624 21.1009 27.6832 21.5128C28.204 21.92 28.6396 22.4171 28.99 23.0043C29.3404 23.5866 29.5819 24.2519 29.7144 25ZM35.5436 35.2557C34.8523 35.2557 34.225 35.1255 33.6615 34.8651C33.0981 34.5999 32.6506 34.2188 32.3192 33.7216C31.9878 33.2197 31.822 32.6136 31.822 31.9034C31.822 31.2784 31.9451 30.7718 32.1914 30.3835C32.4376 29.9905 32.7666 29.6828 33.1786 29.4602C33.5905 29.2377 34.0451 29.072 34.5422 28.9631C35.0441 28.8494 35.5484 28.7595 36.055 28.6932C36.7179 28.608 37.2553 28.544 37.6672 28.5014C38.0839 28.4541 38.3869 28.3759 38.5763 28.267C38.7704 28.1581 38.8675 27.9687 38.8675 27.6989V27.642C38.8675 26.9413 38.6757 26.3968 38.2922 26.0085C37.9134 25.6203 37.3381 25.4261 36.5664 25.4261C35.7662 25.4261 35.1388 25.6013 34.6843 25.9517C34.2297 26.3021 33.9101 26.6761 33.7255 27.0739L32.1345 26.5057C32.4186 25.8428 32.7974 25.3267 33.2709 24.9574C33.7491 24.5833 34.27 24.3229 34.8334 24.1761C35.4016 24.0246 35.9603 23.9489 36.5095 23.9489C36.8599 23.9489 37.2624 23.9915 37.7169 24.0767C38.1762 24.1572 38.6189 24.3253 39.0451 24.581C39.4759 24.8366 39.8334 25.2225 40.1175 25.7386C40.4016 26.2547 40.5436 26.946 40.5436 27.8125V35H38.8675V33.5227H38.7823C38.6686 33.7595 38.4792 34.0128 38.2141 34.2827C37.9489 34.5526 37.5962 34.7822 37.1559 34.9716C36.7155 35.161 36.1781 35.2557 35.5436 35.2557ZM35.7993 33.75C36.4622 33.75 37.0209 33.6198 37.4755 33.3594C37.9347 33.099 38.2804 32.7628 38.5124 32.3509C38.7491 31.9389 38.8675 31.5057 38.8675 31.0511V29.517C38.7965 29.6023 38.6402 29.6804 38.3987 29.7514C38.162 29.8177 37.8874 29.8769 37.5749 29.929C37.2671 29.9763 36.9665 30.0189 36.6729 30.0568C36.3841 30.09 36.1497 30.1184 35.9698 30.142C35.5342 30.1989 35.127 30.2912 34.7482 30.419C34.3741 30.5421 34.0711 30.7292 33.8391 30.9801C33.6118 31.2263 33.4982 31.5625 33.4982 31.9886C33.4982 32.571 33.7136 33.0114 34.1445 33.3097C34.5801 33.6032 35.1317 33.75 35.7993 33.75ZM45.2791 28.4375V35H43.6029V24.0909H45.2223V25.7955H45.3643C45.62 25.2415 46.0082 24.7964 46.5291 24.4602C47.0499 24.1193 47.7223 23.9489 48.5461 23.9489C49.2848 23.9489 49.9311 24.1004 50.485 24.4034C51.039 24.7017 51.4699 25.1562 51.7777 25.767C52.0854 26.3731 52.2393 27.1402 52.2393 28.0682V35H50.5632V28.1818C50.5632 27.3248 50.3406 26.6572 49.8956 26.179C49.4505 25.696 48.8397 25.4545 48.0632 25.4545C47.5281 25.4545 47.0499 25.5705 46.6285 25.8026C46.2118 26.0346 45.8828 26.3731 45.6413 26.8182C45.3998 27.2633 45.2791 27.803 45.2791 28.4375ZM59.734 35.2273C58.7112 35.2273 57.8306 34.9858 57.0919 34.5028C56.3533 34.0199 55.7851 33.3546 55.3874 32.5071C54.9897 31.6596 54.7908 30.6913 54.7908 29.6023C54.7908 28.4943 54.9944 27.5166 55.4016 26.669C55.8135 25.8168 56.3864 25.1515 57.1203 24.6733C57.859 24.1903 58.7207 23.9489 59.7056 23.9489C60.4726 23.9489 61.1639 24.0909 61.7794 24.375C62.395 24.6591 62.8992 25.0568 63.2922 25.5682C63.6852 26.0795 63.9291 26.6761 64.0237 27.358H62.3476C62.2198 26.8608 61.9357 26.4205 61.4953 26.0369C61.0597 25.6487 60.4726 25.4545 59.734 25.4545C59.0806 25.4545 58.5076 25.625 58.0152 25.9659C57.5275 26.3021 57.1464 26.7779 56.8718 27.3935C56.6019 28.0043 56.4669 28.7216 56.4669 29.5455C56.4669 30.3883 56.5995 31.1222 56.8647 31.7472C57.1345 32.3722 57.5133 32.8575 58.001 33.2031C58.4934 33.5488 59.0711 33.7216 59.734 33.7216C60.1696 33.7216 60.5649 33.6458 60.9201 33.4943C61.2752 33.3428 61.5758 33.125 61.822 32.8409C62.0683 32.5568 62.2434 32.2159 62.3476 31.8182H64.0237C63.9291 32.4621 63.6947 33.0421 63.3206 33.5582C62.9513 34.0696 62.4612 34.4768 61.8505 34.7798C61.2444 35.0781 60.5389 35.2273 59.734 35.2273ZM71.0479 35.2273C69.9968 35.2273 69.09 34.9953 68.3277 34.5312C67.5701 34.0625 66.9854 33.4091 66.5735 32.571C66.1663 31.7282 65.9627 30.7481 65.9627 29.6307C65.9627 28.5133 66.1663 27.5284 66.5735 26.6761C66.9854 25.8191 67.5583 25.1515 68.2922 24.6733C69.0309 24.1903 69.8926 23.9489 70.8774 23.9489C71.4456 23.9489 72.0067 24.0436 72.5607 24.233C73.1147 24.4223 73.6189 24.7301 74.0735 25.1562C74.528 25.5777 74.8902 26.1364 75.1601 26.8324C75.43 27.5284 75.5649 28.3854 75.5649 29.4034V30.1136H67.1559V28.6648H73.8604C73.8604 28.0492 73.7373 27.5 73.4911 27.017C73.2496 26.5341 72.904 26.1529 72.4541 25.8736C72.0091 25.5942 71.4835 25.4545 70.8774 25.4545C70.2098 25.4545 69.6322 25.6203 69.1445 25.9517C68.6615 26.2784 68.2898 26.7045 68.0294 27.2301C67.769 27.7557 67.6388 28.3191 67.6388 28.9205V29.8864C67.6388 30.7102 67.7809 31.4086 68.0649 31.9815C68.3538 32.5497 68.7539 32.983 69.2652 33.2812C69.7766 33.5748 70.3708 33.7216 71.0479 33.7216C71.4882 33.7216 71.886 33.66 72.2411 33.5369C72.6009 33.4091 72.9111 33.2197 73.1715 32.9688C73.4319 32.7131 73.6331 32.3958 73.7752 32.017L75.3945 32.4716C75.224 33.0208 74.9376 33.5038 74.5351 33.9205C74.1326 34.3324 73.6355 34.6544 73.0436 34.8864C72.4518 35.1136 71.7865 35.2273 71.0479 35.2273ZM79.7908 20.4545V35H78.1147V20.4545H79.7908Z" fill="#2A3647"/>
<path d="M98.2495 28.0001L103.493 33.2431M93.0065 33.2431L98.2495 28.0001L93.0065 33.2431ZM103.493 22.7571L98.2485 28.0001L103.493 22.7571ZM98.2485 28.0001L93.0065 22.7571L98.2485 28.0001Z" stroke="#2A3647" stroke-width="2" stroke-linecap="round" stroke-linejoin="round"/>
</svg>
